<?xml version="1.0" encoding="UTF-8" standalone="no"?>
<!-- Generator: Gravit.io -->
<svg xmlns="http://www.w3.org/2000/svg" xmlns:xlink="http://www.w3.org/1999/xlink" style="isolation:isolate" viewBox="0 0 32 32" width="32pt" height="32pt"><defs><clipPath id="_clipPath_Y89UOLjkVuN8qTYKr7QodfKVoVNwjjBU"><rect width="32" height="32"/></clipPath></defs><g clip-path="url(#_clipPath_Y89UOLjkVuN8qTYKr7QodfKVoVNwjjBU)"><path d=" M 8.52 9.934 L 5.393 6.808 L 6.808 5.393 L 26.607 25.192 L 25.192 26.607 L 21.882 23.297 C 20.181 24.375 18.164 25 16 25 C 10.608 25 6.122 21.12 5.181 16 C 5.618 13.623 6.819 11.513 8.52 9.934 Z  M 18.757 20.172 L 17.293 18.708 C 16.902 18.895 16.463 19 16 19 C 14.343 19 13 17.657 13 16 C 13 15.537 13.105 15.098 13.292 14.707 L 11.828 13.243 C 11.305 14.033 11 14.981 11 16 C 11 18.761 13.239 21 16 21 C 17.019 21 17.967 20.695 18.757 20.172 Z  M 11.974 7.76 C 13.221 7.269 14.579 7 16 7 C 21.392 7 25.878 10.88 26.819 16 C 26.506 17.7 25.804 19.263 24.807 20.592 L 20.947 16.733 C 20.982 16.493 21 16.249 21 16 C 21 13.239 18.761 11 16 11 C 15.751 11 15.507 11.018 15.267 11.053 L 11.974 7.76 Z " fill="#cfdbd5"/></g></svg>