<?xml version="1.0" encoding="UTF-8" standalone="no"?>
<!-- Generator: Gravit.io -->
<svg xmlns="http://www.w3.org/2000/svg" xmlns:xlink="http://www.w3.org/1999/xlink" style="isolation:isolate" viewBox="0 0 32 32" width="32pt" height="32pt"><defs><clipPath id="_clipPath_eAEnrlp8x8xwDIggixx7y7TYEfoKQSz7"><rect width="32" height="32"/></clipPath></defs><g clip-path="url(#_clipPath_eAEnrlp8x8xwDIggixx7y7TYEfoKQSz7)"><path d=" M 8.579 11.66 L 23.541 11.66 C 23.661 11.655 23.781 11.665 23.899 11.689 C 24.094 11.732 24.273 11.829 24.415 11.968 C 24.581 12.127 24.685 12.339 24.709 12.567 C 24.714 12.653 24.71 12.74 24.699 12.825 L 23.424 26.025 L 23.424 26.025 L 23.424 26.048 L 23.424 26.098 L 23.424 26.098 C 23.416 26.153 23.404 26.207 23.388 26.26 L 23.388 26.26 L 23.388 26.271 L 23.388 26.271 C 23.25 26.697 22.857 26.99 22.408 27 L 9.681 27 C 9.606 26.996 9.53 26.985 9.457 26.966 C 9.385 26.944 9.315 26.916 9.249 26.88 L 9.249 26.88 C 8.932 26.697 8.725 26.37 8.697 26.005 L 7.443 12.834 C 7.428 12.735 7.425 12.636 7.432 12.536 C 7.457 12.312 7.56 12.103 7.724 11.947 C 7.872 11.803 8.059 11.704 8.262 11.664 C 8.368 11.645 8.475 11.637 8.583 11.64 L 8.579 11.66 Z  M 7.59 6.577 L 13.23 6.577 L 13.23 6.075 L 13.23 6.075 C 13.229 6.059 13.229 6.043 13.23 6.027 C 13.241 5.757 13.354 5.501 13.545 5.31 L 13.545 5.31 C 13.746 5.112 14.017 5 14.3 5 L 17.771 5 L 17.825 5 C 18.398 5.029 18.848 5.502 18.847 6.075 L 18.847 6.075 L 18.847 6.075 L 18.847 6.577 L 24.582 6.577 L 24.652 6.577 C 25.072 6.612 25.402 6.951 25.424 7.371 C 25.424 7.403 25.424 7.429 25.424 7.461 L 25.424 9.228 C 25.424 9.351 25.375 9.469 25.288 9.556 C 25.201 9.643 25.083 9.692 24.96 9.692 L 7.041 9.692 C 6.787 9.692 6.58 9.488 6.577 9.233 L 6.577 7.425 L 6.577 7.425 C 6.575 7.406 6.575 7.388 6.577 7.369 L 6.577 7.369 C 6.602 6.981 6.889 6.66 7.272 6.592 C 7.378 6.578 7.484 6.573 7.59 6.577 Z  M 15.135 16.022 C 15.18 15.586 15.547 15.255 15.985 15.255 C 16.424 15.255 16.791 15.586 16.836 16.022 L 16.836 22.654 C 16.791 23.09 16.424 23.421 15.985 23.421 C 15.547 23.421 15.18 23.09 15.135 22.654 L 15.135 16.022 Z  M 19.388 15.987 C 19.437 15.539 19.837 15.215 20.284 15.259 C 20.498 15.257 20.703 15.34 20.855 15.49 C 21.006 15.64 21.092 15.845 21.093 16.058 L 20.734 22.69 C 20.686 23.137 20.286 23.462 19.838 23.417 C 19.625 23.419 19.419 23.336 19.267 23.186 C 19.116 23.036 19.03 22.831 19.03 22.618 L 19.388 15.987 Z  M 11.058 16.058 C 11.058 15.845 11.143 15.641 11.294 15.49 C 11.446 15.34 11.651 15.257 11.864 15.259 C 12.312 15.215 12.711 15.539 12.76 15.987 L 13.119 22.618 C 13.118 22.831 13.033 23.036 12.881 23.186 C 12.729 23.336 12.524 23.419 12.31 23.417 C 11.863 23.462 11.462 23.137 11.414 22.69 L 11.056 16.058 L 11.058 16.058 Z " fill-rule="evenodd" fill="#f07167"/></g></svg>