<?xml version="1.0" encoding="utf-8"?><!-- Uploaded to: SVG Repo, www.svgrepo.com, Generator: SVG Repo Mixer Tools -->
<svg width="800px" height="800px" viewBox="0 0 24 24" fill="none" xmlns="http://www.w3.org/2000/svg">
<path d="M16.25 7.75H16.255M16.25 16.25H16.255M7.75 7.75H7.755M12 11.75H12.005M7.75 16.25H7.755M7.8 21H16.2C17.8802 21 18.7202 21 19.362 20.673C19.9265 20.3854 20.3854 19.9265 20.673 19.362C21 18.7202 21 17.8802 21 16.2V7.8C21 6.11984 21 5.27976 20.673 4.63803C20.3854 4.07354 19.9265 3.6146 19.362 3.32698C18.7202 3 17.8802 3 16.2 3H7.8C6.11984 3 5.27976 3 4.63803 3.32698C4.07354 3.6146 3.6146 4.07354 3.32698 4.63803C3 5.27976 3 6.11984 3 7.8V16.2C3 17.8802 3 18.7202 3.32698 19.362C3.6146 19.9265 4.07354 20.3854 4.63803 20.673C5.27976 21 6.11984 21 7.8 21ZM16.5 7.75C16.5 7.88807 16.3881 8 16.25 8C16.1119 8 16 7.88807 16 7.75C16 7.61193 16.1119 7.5 16.25 7.5C16.3881 7.5 16.5 7.61193 16.5 7.75ZM16.5 16.25C16.5 16.3881 16.3881 16.5 16.25 16.5C16.1119 16.5 16 16.3881 16 16.25C16 16.1119 16.1119 16 16.25 16C16.3881 16 16.5 16.1119 16.5 16.25ZM8 7.75C8 7.88807 7.88807 8 7.75 8C7.61193 8 7.5 7.88807 7.5 7.75C7.5 7.61193 7.61193 7.5 7.75 7.5C7.88807 7.5 8 7.61193 8 7.75ZM12.25 11.75C12.25 11.8881 12.1381 12 12 12C11.8619 12 11.75 11.8881 11.75 11.75C11.75 11.6119 11.8619 11.5 12 11.5C12.1381 11.5 12.25 11.6119 12.25 11.75ZM8 16.25C8 16.3881 7.88807 16.5 7.75 16.5C7.61193 16.5 7.5 16.3881 7.5 16.25C7.5 16.1119 7.61193 16 7.75 16C7.88807 16 8 16.1119 8 16.25Z" stroke="#ffffff" stroke-width="2" stroke-linecap="round" stroke-linejoin="round"/>
</svg>