<?xml version="1.0" encoding="utf-8"?><!-- Uploaded to: SVG Repo, www.svgrepo.com, Generator: SVG Repo Mixer Tools -->
<svg width="800px" height="800px" viewBox="0 0 24 24" fill="none" xmlns="http://www.w3.org/2000/svg">
<path d="M3.17163 5.12988L21.1716 19.1299" stroke="#adb5bd" stroke-width="2" stroke-linecap="round" stroke-linejoin="round"/>
<path d="M14.3653 13.8456C13.8162 14.5483 12.9609 15 12 15C10.3431 15 9 13.6569 9 12C9 11.3256 9.22253 10.7032 9.59817 10.2021" stroke="#adb5bd" stroke-width="2"/>
<path d="M9 5.62667C11.5803 4.45322 14.7268 4.92775 16.8493 7.05025L19.8511 10.052C20.3477 10.5486 20.5959 10.7969 20.7362 11.0605C21.0487 11.6479 21.0487 12.3521 20.7362 12.9395C20.5959 13.2031 20.3477 13.4514 19.8511 13.948V13.948L19.799 14" stroke="#adb5bd" stroke-width="2" stroke-linecap="round" stroke-linejoin="round"/>
<path d="M7.01596 8.39827C7.40649 8.00774 7.40649 7.37458 7.01596 6.98406C6.62544 6.59353 5.99228 6.59353 5.60175 6.98406L7.01596 8.39827ZM7.65685 16.2427L5.53553 14.1213L4.12132 15.5356L6.24264 17.6569L7.65685 16.2427ZM16.1421 16.2427C13.799 18.5858 10 18.5858 7.65685 16.2427L6.24264 17.6569C9.36684 20.7811 14.4322 20.7811 17.5563 17.6569L16.1421 16.2427ZM5.53553 9.8787L7.01596 8.39827L5.60175 6.98406L4.12132 8.46449L5.53553 9.8787ZM16.7465 15.6383L16.1421 16.2427L17.5563 17.6569L18.1607 17.0526L16.7465 15.6383ZM5.53553 14.1213C4.84888 13.4347 4.40652 12.9893 4.12345 12.6183C3.85798 12.2704 3.82843 12.1077 3.82843 12L1.82843 12C1.82843 12.7208 2.1322 13.3056 2.53341 13.8315C2.917 14.3342 3.47464 14.8889 4.12132 15.5356L5.53553 14.1213ZM4.12132 8.46449C3.47464 9.11116 2.917 9.6658 2.53341 10.1686C2.1322 10.6944 1.82843 11.2792 1.82843 12H3.82843C3.82843 11.8924 3.85798 11.7297 4.12345 11.3817C4.40652 11.0107 4.84888 10.5654 5.53553 9.8787L4.12132 8.46449Z" fill="#adb5bd"/>
</svg>