<?xml version="1.0" encoding="utf-8"?><!-- Uploaded to: SVG Repo, www.svgrepo.com, Generator: SVG Repo Mixer Tools -->
<svg width="800px" height="800px" viewBox="0 0 24 24" fill="none" xmlns="http://www.w3.org/2000/svg">
<path d="M15 12C15 13.6569 13.6569 15 12 15C10.3431 15 9 13.6569 9 12C9 10.3431 10.3431 9 12 9C13.6569 9 15 10.3431 15 12Z" stroke="#80ed99" stroke-width="2"/>
<path d="M6.94975 7.05025C9.68342 4.31658 14.1156 4.31658 16.8492 7.05025L18.9706 9.17157C20.3039 10.5049 20.9706 11.1716 20.9706 12C20.9706 12.8284 20.3039 13.4951 18.9706 14.8284L16.8492 16.9497C14.1156 19.6834 9.68342 19.6834 6.94975 16.9497L4.82843 14.8284C3.49509 13.4951 2.82843 12.8284 2.82843 12C2.82843 11.1716 3.49509 10.5049 4.82843 9.17157L6.94975 7.05025Z" stroke="#80ed99" stroke-width="2" stroke-linejoin="round"/>
</svg>