<?xml version="1.0" encoding="UTF-8" standalone="no"?>
<!-- Generator: Gravit.io -->
<svg xmlns="http://www.w3.org/2000/svg" xmlns:xlink="http://www.w3.org/1999/xlink" style="isolation:isolate" viewBox="0 0 32 32" width="32pt" height="32pt"><defs><clipPath id="_clipPath_Cf3Z8CMPp8AWfSEYc1oTb4MLO0dJGDeu"><rect width="32" height="32"/></clipPath></defs><g clip-path="url(#_clipPath_Cf3Z8CMPp8AWfSEYc1oTb4MLO0dJGDeu)"><path d=" M 5.181 16 C 6.122 10.88 10.608 7 16 7 C 21.392 7 25.878 10.88 26.819 16 C 25.878 21.12 21.392 25 16 25 C 10.608 25 6.122 21.12 5.181 16 Z  M 16 21 C 18.761 21 21 18.761 21 16 C 21 13.239 18.761 11 16 11 C 13.239 11 11 13.239 11 16 C 11 18.761 13.239 21 16 21 Z  M 16 19 C 14.343 19 13 17.657 13 16 C 13 14.343 14.343 13 16 13 C 17.657 13 19 14.343 19 16 C 19 17.657 17.657 19 16 19 Z " fill="#74c69d"/></g></svg>