<?xml version="1.0" encoding="utf-8"?><!-- Uploaded to: SVG Repo, www.svgrepo.com, Generator: SVG Repo Mixer Tools -->
<svg width="800px" height="800px" viewBox="0 0 24 24" fill="none" xmlns="http://www.w3.org/2000/svg">
<path fill-rule="evenodd" clip-rule="evenodd" d="M2 6C2 4.34315 3.34315 3 5 3H7.75093C8.82997 3 9.86325 3.43595 10.6162 4.20888L9.94852 4.85927L10.6162 4.20888L11.7227 5.34484C11.911 5.53807 12.1693 5.64706 12.4391 5.64706H16.4386C18.5513 5.64706 20.281 7.28495 20.4284 9.35939C21.7878 9.88545 22.5642 11.4588 21.977 12.927L20.1542 17.4853C19.5468 19.0041 18.0759 20 16.4402 20H6C4.88522 20 3.87543 19.5427 3.15116 18.8079C2.44035 18.0867 2 17.0938 2 16V6ZM18.3829 9.17647C18.1713 8.29912 17.3812 7.64706 16.4386 7.64706H12.4391C11.6298 7.64706 10.8548 7.3201 10.2901 6.7404L9.18356 5.60444L9.89987 4.90666L9.18356 5.60444C8.80709 5.21798 8.29045 5 7.75093 5H5C4.44772 5 4 5.44772 4 6V14.4471L5.03813 11.25C5.43958 10.0136 6.59158 9.17647 7.89147 9.17647H18.3829ZM5.03034 17.7499L6.94036 11.8676C7.07417 11.4555 7.45817 11.1765 7.89147 11.1765H19.4376C19.9575 11.1765 20.3131 11.7016 20.12 12.1844L18.2972 16.7426C17.9935 17.502 17.258 18 16.4402 18H6C5.64785 18 5.31756 17.9095 5.03034 17.7499Z" fill="#ffffff"/>
</svg>