<?xml version="1.0" encoding="utf-8"?><!-- Uploaded to: SVG Repo, www.svgrepo.com, Generator: SVG Repo Mixer Tools -->
<svg fill="#ffffff" width="800px" height="800px" viewBox="0 0 256 256" id="Flat" xmlns="http://www.w3.org/2000/svg">
  <path d="M240.23242,205.97949a27.71209,27.71209,0,0,1-24.25586,14.0127H156.96387l3.52246,3.52343a12.0001,12.0001,0,0,1-16.97266,16.96876L119.52,216.48218q-.41822-.41822-.79443-.87671c-.05713-.06983-.106-.14526-.16163-.21631-.186-.23706-.36962-.47583-.53808-.72681-.04736-.071-.08692-.14673-.1333-.219-.165-.2583-.32666-.51856-.47217-.7898-.02979-.05542-.05322-.114-.082-.17016-.15039-.29151-.29443-.58643-.42139-.89111-.01855-.04493-.03174-.09156-.0498-.13648-.127-.31665-.24561-.63721-.34571-.96655-.0166-.05322-.02636-.10816-.042-.16162-.09228-.31983-.17822-.64234-.24414-.97266-.02344-.11816-.03467-.2395-.05469-.35889-.04492-.26709-.09326-.533-.12011-.80566-.03711-.37109-.0542-.74536-.05664-1.12109,0-.02613-.00391-.05127-.00391-.07715v-.002a11.86737,11.86737,0,0,1,.06055-1.19531c.03174-.3208.085-.63525.1416-.94824.01318-.07129.01855-.144.03271-.21509.07227-.36206.16407-.71655.26807-1.06592.00684-.0227.01074-.04614.01807-.06909.10644-.35034.23144-.69238.36865-1.02856.00976-.02466.01709-.05.02734-.07471.13086-.31567.2793-.62183.436-.9231.02392-.04614.043-.09448.06787-.14038.145-.27075.30713-.531.47217-.78906.04638-.073.08642-.1499.13476-.22192.15821-.23584.332-.46.50635-.6836.06641-.08593.126-.17675.19482-.261.21485-.26123.44483-.50928.68067-.75147.03662-.03784.06836-.07959.10595-.11694l24-23.99219a12.0001,12.0001,0,0,1,16.96876,16.97266l-3.50684,3.50586h58.999a4.00089,4.00089,0,0,0,3.46192-6.00489l-19.94825-34.46191A12.00019,12.00019,0,0,1,220.26172,143.502L240.21,177.96484A27.7154,27.7154,0,0,1,240.23242,205.97949ZM128,36a3.87372,3.87372,0,0,1,3.46191,1.99609L160.91113,88.874,156.165,87.60156a12.00013,12.00013,0,1,0-6.21484,23.18164l32.77832,8.78809c.01025.00293.0205.00342.03125.0061.34375.09131.6958.14771,1.04687.20825a10.597,10.597,0,0,0,3.40723.10889c.10205-.01172.20361-.02368.30566-.03808a11.9411,11.9411,0,0,0,1.3169-.25831c.0747-.01928.14843-.04492.22314-.06591a12.0488,12.0488,0,0,0,1.16943-.394c.08155-.03222.16407-.0603.24512-.09448a12.16748,12.16748,0,0,0,1.24512-.614c.042-.02393.08642-.03907.12842-.06348.061-.0354.11572-.07788.17627-.11426.21679-.13061.42871-.269.6372-.41308.10449-.07227.21094-.14258.313-.21753.24414-.18091.481-.37207.71143-.571.06494-.05615.13134-.11035.19482-.16772q.36987-.33361.71192-.699c.08935-.0957.17236-.1958.2583-.29394.15576-.17725.30859-.35718.4541-.54419.084-.10816.16455-.21826.24463-.32886q.2058-.28417.3955-.582c.06983-.10962.13965-.21875.20557-.33057.126-.21215.24316-.43066.35645-.6521.05322-.10376.10937-.206.15918-.31128.11718-.24584.22216-.49926.32324-.75537.03418-.08593.07324-.16967.105-.25634.12451-.33912.2373-.68531.33252-1.041l8.791-32.78809A12.00013,12.00013,0,1,0,183.03613,72.085l-1.30175,4.855-29.501-50.96728a28.00086,28.00086,0,0,0-48.4668,0L83.82422,60.42676A12.00018,12.00018,0,1,0,104.5957,72.4502l19.94239-34.45411A3.87372,3.87372,0,0,1,128,36ZM80,195.99219H40.02344a4.0004,4.0004,0,0,1-3.46192-6.00391L66.063,139.02l1.30224,4.85693a12.00014,12.00014,0,0,0,23.18165-6.21484l-8.792-32.78906c-.022-.08252-.0542-.16089-.07812-.24268-.085-.2915-.17237-.582-.27881-.86645-.043-.11451-.09717-.22315-.14356-.33619-.10253-.24975-.2041-.5-.32324-.74292-.04638-.094-.10156-.18212-.1499-.27465-.13379-.25537-.26855-.50977-.4209-.75537-.042-.06763-.09082-.13038-.13379-.197-.16943-.262-.34326-.52124-.53418-.7705-.03906-.05152-.084-.09839-.124-.14917-.20166-.25489-.40869-.50611-.63281-.74561-.04981-.05371-.10547-.10132-.15674-.154-.21973-.22656-.44287-.45069-.68213-.66138-.09717-.08545-.20313-.16064-.30273-.24292-.20313-.16675-.40235-.33618-.61817-.49121-.22461-.16138-.46191-.30615-.69824-.45239-.10254-.06348-.19678-.135-.30176-.1958l-.00781-.00391-.00586-.00391q-.51709-.2981-1.05713-.5415a11.96518,11.96518,0,0,0-8.03857-.6582l-.01075.00244-32.77734,8.78906a12.00039,12.00039,0,0,0,6.2168,23.18164l4.74365-1.272L15.79,177.96582a28.0001,28.0001,0,0,0,24.2334,42.02637H80a12,12,0,0,0,0-24Z"/>
</svg>