<?xml version="1.0" encoding="utf-8"?><!-- Uploaded to: SVG Repo, www.svgrepo.com, Generator: SVG Repo Mixer Tools -->
<svg width="800px" height="800px" viewBox="0 0 24 24" xmlns="http://www.w3.org/2000/svg" fill="none">
  <path stroke="#ffffff" stroke-linecap="round" stroke-linejoin="round" stroke-width="2" d="m21 17-3.293-3.293a1 1 0 0 0-1.414 0l-.586.586a1 1 0 0 1-1.414 0l-2.879-2.879a2 2 0 0 0-2.828 0L3 17M21 5v14a1 1 0 0 1-1 1H4a1 1 0 0 1-1-1V5a1 1 0 0 1 1-1h16a1 1 0 0 1 1 1Zm-5 3a1 1 0 1 1-2 0 1 1 0 0 1 2 0Z"/>
</svg>